<svg id="Layer_1" data-name="Layer 1" xmlns="http://www.w3.org/2000/svg" viewBox="0 0 200.965 52.251">
  <defs>
    <style>
      .cls-1 {
        fill: #fff8b1;
      }

      .cls-2 {
        fill: #1a1818;
      }
    </style>
  </defs>
  <title>8b862fab-9139-476b-a9d2-fe1399823f14</title>
  <path class="cls-1" d="M0,0H179.023a21.941,21.941,0,0,1,21.941,21.941v30.31a0,0,0,0,1,0,0H31.407A31.407,31.407,0,0,1,0,20.844V0A0,0,0,0,1,0,0Z"/>
  <g>
    <path class="cls-2" d="M66.694,13.943c3.745,0,5.67,2.24,5.67,6.161v.77h-3.64V19.859c0-1.75-.7-2.415-1.926-2.415s-1.925.665-1.925,2.415c0,1.786.77,3.116,3.29,5.321,3.221,2.835,4.235,4.865,4.235,7.666,0,3.92-1.96,6.16-5.74,6.16s-5.741-2.24-5.741-6.16V31.34h3.641v1.75c0,1.75.771,2.38,2,2.38s2-.63,2-2.38c0-1.785-.77-3.115-3.29-5.32-3.221-2.835-4.235-4.866-4.235-7.666C61.023,16.183,62.948,13.943,66.694,13.943Z"/>
    <path class="cls-2" d="M78.278,14.223v18.9c0,1.75.771,2.38,2,2.38s2-.63,2-2.38v-18.9h3.64V32.88c0,3.92-1.96,6.161-5.74,6.161s-5.74-2.24-5.74-6.161V14.223Z"/>
    <path class="cls-2" d="M100.048,19.859v.875c0,2.52-.77,4.1-2.485,4.9v.07c2.065.805,2.871,2.625,2.871,5.216v2c0,3.78-2,5.811-5.846,5.811H88.533v-24.5h5.811C98.333,14.223,100.048,16.078,100.048,19.859Zm-7.665-2.135V24.2h1.5c1.435,0,2.311-.63,2.311-2.59V20.244c0-1.75-.6-2.521-1.961-2.521Zm0,9.976v7.526h2.205c1.295,0,2-.595,2-2.415V30.675c0-2.275-.735-2.976-2.485-2.976Z"/>
    <path class="cls-2" d="M110.863,31.62h.07l2.591-17.4h5.355v24.5h-3.641V21.154h-.07l-2.59,17.572h-3.641l-2.8-17.327h-.07V38.726h-3.36v-24.5h5.355Z"/>
    <path class="cls-2" d="M121.677,14.223h3.851v24.5h-3.851Z"/>
    <path class="cls-2" d="M127.206,14.223h11.9v3.5h-4.025v21h-3.851v-21h-4.025Z"/>
  </g>
</svg>
