<svg id="Layer_1" data-name="Layer 1" xmlns="http://www.w3.org/2000/svg" viewBox="0 0 297.694 68.414">
  <defs>
    <style>
      .cls-1 {
        fill: #fff;
        stroke: #030504;
        stroke-miterlimit: 10;
        stroke-width: 0.5px;
      }
    </style>
  </defs>
  <title>a35a980b-49a5-42b4-a781-980bf8ab4a53</title>
  <g>
    <path class="cls-1" d="M10.149,29.622h9.965v6.6H10.149V49.75H22.688v6.6H2.89v-46.2h19.8v6.6H10.149Z"/>
    <path class="cls-1" d="M47.306,10.154v6.467L33.513,49.75H47.306v6.6H26.056V49.882L39.848,16.753H26.715v-6.6Z"/>
    <path class="cls-1" d="M83.341,21.571v6.005c0,7.391-3.563,11.417-10.823,11.417H69.086V56.35H61.827v-46.2H72.519C79.778,10.154,83.341,14.179,83.341,21.571ZM69.086,16.753V32.394h3.432c2.31,0,3.563-1.056,3.563-4.355V21.109c0-3.3-1.254-4.356-3.563-4.356Z"/>
    <path class="cls-1" d="M101.888,56.35c-.4-1.188-.66-1.914-.66-5.675v-7.26c0-4.29-1.452-5.874-4.752-5.874H93.968V56.35H86.709v-46.2H97.664c7.523,0,10.757,3.5,10.757,10.625v3.629c0,4.752-1.518,7.788-4.752,9.305v.132c3.63,1.518,4.818,4.949,4.818,9.767V50.74a13.6,13.6,0,0,0,.792,5.609Zm-7.919-39.6V30.942h2.838c2.706,0,4.355-1.188,4.355-4.884V21.5c0-3.3-1.122-4.752-3.7-4.752Z"/>
    <path class="cls-1" d="M112.646,21.241c0-7.392,3.894-11.615,11.021-11.615s11.021,4.224,11.021,11.615V45.263c0,7.391-3.894,11.615-11.021,11.615s-11.021-4.224-11.021-11.615Zm7.259,24.484c0,3.3,1.452,4.554,3.762,4.554s3.762-1.254,3.762-4.554V20.779c0-3.3-1.452-4.554-3.762-4.554s-3.762,1.254-3.762,4.554Z"/>
    <path class="cls-1" d="M160.89,21.571v6.005c0,7.391-3.563,11.417-10.823,11.417h-3.432V56.35h-7.259v-46.2h10.691C157.327,10.154,160.89,14.179,160.89,21.571Zm-14.255-4.818V32.394h3.432c2.31,0,3.563-1.056,3.563-4.355V21.109c0-3.3-1.254-4.356-3.563-4.356Z"/>
    <path class="cls-1" d="M171.518,29.622h9.965v6.6h-9.965V49.75h12.539v6.6h-19.8v-46.2h19.8v6.6H171.518Z"/>
    <path class="cls-1" d="M203.725,56.35c-.4-1.188-.66-1.914-.66-5.675v-7.26c0-4.29-1.452-5.874-4.752-5.874h-2.508V56.35h-7.259v-46.2H199.5c7.523,0,10.757,3.5,10.757,10.625v3.629c0,4.752-1.518,7.788-4.752,9.305v.132c3.63,1.518,4.818,4.949,4.818,9.767V50.74a13.6,13.6,0,0,0,.792,5.609Zm-7.919-39.6V30.942h2.838c2.706,0,4.355-1.188,4.355-4.884V21.5c0-3.3-1.122-4.752-3.7-4.752Z"/>
    <path class="cls-1" d="M212.966,10.154H235.4v6.6h-7.589v39.6h-7.259v-39.6h-7.589Z"/>
    <path class="cls-1" d="M238.573,10.154h7.259v46.2h-7.259Z"/>
    <path class="cls-1" d="M258.371,29.622h9.965v6.6h-9.965V49.75H270.91v6.6h-19.8v-46.2h19.8v6.6H258.371Z"/>
    <path class="cls-1" d="M285.167,9.625c7.062,0,10.691,4.224,10.691,11.615v1.452h-6.863V20.779c0-3.3-1.32-4.554-3.63-4.554s-3.63,1.254-3.63,4.554c0,3.366,1.452,5.874,6.2,10.031,6.072,5.345,7.985,9.173,7.985,14.453,0,7.391-3.7,11.615-10.823,11.615s-10.823-4.224-10.823-11.615V42.425h6.863v3.3c0,3.3,1.452,4.487,3.762,4.487s3.762-1.187,3.762-4.487c0-3.366-1.452-5.874-6.2-10.031-6.071-5.346-7.985-9.173-7.985-14.453C274.476,13.849,278.105,9.625,285.167,9.625Z"/>
  </g>
</svg>
