<svg id="Layer_1" data-name="Layer 1" xmlns="http://www.w3.org/2000/svg" viewBox="0 0 200.965 52.251">
  <defs>
    <style>
      .cls-1 {
        fill: #fff8b1;
      }

      .cls-2 {
        fill: #1a1818;
      }

      .cls-3 {
        fill: none;
        stroke: #ec6820;
        stroke-miterlimit: 10;
        stroke-width: 3.919px;
      }
    </style>
  </defs>
  <title>e8d2cf9e-8285-45b6-91ba-1a1a865df9bc</title>
  <path class="cls-1" d="M2.119,0h181.86a16.986,16.986,0,0,1,16.986,16.986V35.264a16.986,16.986,0,0,1-16.986,16.986H16.986A16.986,16.986,0,0,1,0,35.264V2.119A2.119,2.119,0,0,1,2.119,0Z"/>
  <g>
    <path class="cls-2" d="M32.889,24.549h5.285v3.5H32.889v7.176h6.65v3.5h-10.5v-24.5h10.5v3.5h-6.65Z"/>
    <path class="cls-2" d="M45.418,20.979h-.07V38.726H41.883v-24.5h4.83L50.6,28.89h.07V14.223H54.1v24.5H50.144Z"/>
    <path class="cls-2" d="M55.743,14.223h11.9v3.5H63.619v21H59.768v-21H55.743Z"/>
    <path class="cls-2" d="M73.173,24.549h5.285v3.5H73.173v7.176h6.65v3.5h-10.5v-24.5h10.5v3.5h-6.65Z"/>
    <path class="cls-2" d="M90.253,38.726a7.532,7.532,0,0,1-.351-3.01V31.865c0-2.275-.77-3.115-2.52-3.115h-1.33v9.976H82.2v-24.5h5.811c3.99,0,5.705,1.855,5.705,5.635v1.925c0,2.521-.8,4.13-2.52,4.936v.07c1.925.8,2.555,2.625,2.555,5.18v3.781a7.22,7.22,0,0,0,.42,2.975Zm-4.2-21v7.526h1.5c1.435,0,2.311-.63,2.311-2.59V20.244c0-1.75-.6-2.521-1.961-2.521Z"/>
    <path class="cls-2" d="M105.2,20.979h-.07V38.726h-3.465v-24.5h4.83l3.886,14.667h.07V14.223h3.43v24.5h-3.955Z"/>
    <path class="cls-2" d="M116.327,20.1c0-3.92,2.065-6.161,5.846-6.161s5.846,2.24,5.846,6.161V32.845c0,3.92-2.065,6.16-5.846,6.16s-5.846-2.24-5.846-6.16Zm3.851,12.986c0,1.75.771,2.416,2,2.416s2-.665,2-2.416V19.858c0-1.75-.77-2.415-2-2.415s-2,.665-2,2.415Z"/>
    <path class="cls-2" d="M139.077,25.669h-.069l-1.365,13.056h-5.286l-2.729-24.5h3.745l2.03,19.322h.07l1.819-19.322H141l1.89,19.462h.07l1.96-19.462h3.36l-2.729,24.5h-5.111Z"/>
  </g>
  <polyline class="cls-3" points="163.921 11.908 178.838 26.826 164.542 40.534"/>
</svg>
